<svg id="svg" version="1.1" xmlns="http://www.w3.org/2000/svg" xmlns:xlink="http://www.w3.org/1999/xlink" width="400" height="309.09090909090907" viewBox="0, 0, 400,309.09090909090907"><g id="svgg"><path id="path0" d="M62.875 49.948 C 63.035 49.990,63.298 49.990,63.458 49.948 C 63.619 49.906,63.487 49.872,63.167 49.872 C 62.846 49.872,62.715 49.906,62.875 49.948 M122.000 77.250 L 122.000 80.333 126.583 80.333 L 131.167 80.333 131.167 90.333 L 131.167 100.333 133.750 100.333 L 136.333 100.333 136.333 90.333 L 136.333 80.333 140.750 80.333 L 145.167 80.333 145.167 77.250 L 145.167 74.167 133.583 74.167 L 122.000 74.167 122.000 77.250 M152.878 74.608 C 151.547 75.153,150.317 76.449,149.410 78.263 L 148.750 79.583 148.700 89.958 L 148.650 100.333 151.242 100.333 L 153.833 100.333 153.833 96.248 L 153.833 92.162 158.839 92.206 L 163.844 92.250 165.630 96.292 L 167.416 100.333 169.958 100.333 C 171.356 100.333,172.500 100.267,172.500 100.187 C 172.500 100.049,172.237 99.367,171.751 98.250 C 171.631 97.975,171.444 97.525,171.334 97.250 C 171.224 96.975,170.662 95.625,170.086 94.250 C 169.164 92.050,169.071 91.730,169.307 91.583 C 172.216 89.774,172.819 87.783,172.827 79.958 L 172.833 74.167 163.375 74.175 L 153.917 74.183 152.878 74.608 M176.333 83.977 C 176.333 95.708,176.402 96.211,178.291 98.263 C 180.221 100.360,180.074 100.333,189.881 100.333 L 198.167 100.333 198.167 97.250 L 198.167 94.167 190.081 94.167 L 181.995 94.167 181.665 93.625 C 181.406 93.201,181.334 92.785,181.334 91.708 L 181.333 90.333 189.750 90.333 L 198.167 90.333 198.167 87.250 L 198.167 84.167 189.750 84.167 L 181.333 84.167 181.333 82.250 L 181.333 80.333 189.750 80.333 L 198.167 80.333 198.167 77.250 L 198.167 74.167 187.250 74.167 L 176.333 74.167 176.333 83.977 M206.250 74.454 C 204.481 75.169,203.235 76.454,202.325 78.500 C 201.923 79.402,201.916 79.503,201.866 84.792 L 201.816 90.167 210.491 90.167 L 219.167 90.167 219.167 91.654 C 219.167 93.011,219.129 93.186,218.735 93.654 L 218.304 94.167 210.069 94.167 L 201.833 94.167 201.833 97.254 L 201.833 100.342 210.875 100.296 L 219.917 100.250 220.802 99.793 C 223.907 98.192,224.664 96.067,224.666 88.958 L 224.667 84.333 215.667 84.333 L 206.667 84.333 206.667 82.801 C 206.667 81.365,206.695 81.239,207.115 80.801 L 207.562 80.333 216.115 80.333 L 224.667 80.333 224.667 77.250 L 224.667 74.167 215.792 74.175 C 208.012 74.183,206.834 74.217,206.250 74.454 M237.006 84.042 C 237.012 94.673,237.031 94.934,237.897 96.658 C 238.557 97.972,239.895 99.291,241.141 99.855 L 242.198 100.333 250.599 100.333 L 259.000 100.333 259.000 97.250 L 259.000 94.167 250.902 94.167 L 242.803 94.167 242.491 93.792 C 242.193 93.435,242.177 92.958,242.172 83.792 L 242.167 74.167 239.583 74.167 L 237.000 74.167 237.006 84.042 M262.510 83.958 C 262.521 95.223,262.555 95.558,263.849 97.439 C 265.829 100.317,265.898 100.333,276.131 100.333 L 284.500 100.333 284.500 97.250 L 284.500 94.167 276.347 94.167 L 268.194 94.167 267.847 93.605 C 267.570 93.157,267.500 92.771,267.500 91.689 L 267.500 90.333 276.000 90.333 L 284.500 90.333 284.500 87.250 L 284.500 84.167 276.000 84.167 L 267.500 84.167 267.500 82.250 L 267.500 80.333 276.000 80.333 L 284.500 80.333 284.500 77.250 L 284.500 74.167 273.500 74.167 L 262.500 74.167 262.510 83.958 M288.000 84.228 C 288.000 93.868,288.014 94.334,288.337 95.345 C 288.971 97.328,290.364 99.065,291.958 99.856 L 292.750 100.250 301.375 100.296 L 310.000 100.342 310.000 97.254 L 310.000 94.167 301.837 94.167 L 293.674 94.167 293.379 93.716 C 293.111 93.307,293.079 92.660,293.036 86.799 L 292.989 80.333 301.494 80.333 L 310.000 80.333 310.000 77.250 L 310.000 74.167 299.000 74.167 L 288.000 74.167 288.000 84.228 M313.333 87.250 L 313.333 100.333 315.917 100.333 L 318.500 100.333 318.500 95.333 L 318.500 90.333 325.167 90.333 L 331.833 90.333 331.833 95.333 L 331.833 100.333 334.333 100.333 L 336.833 100.333 336.833 87.250 L 336.833 74.167 334.333 74.167 L 331.833 74.167 331.833 79.167 L 331.833 84.167 325.167 84.167 L 318.500 84.167 318.500 79.167 L 318.500 74.167 315.917 74.167 L 313.333 74.167 313.333 87.250 M340.500 84.266 C 340.500 95.590,340.478 95.347,341.705 97.291 C 342.484 98.524,343.364 99.318,344.604 99.905 L 345.509 100.333 353.921 100.333 L 362.333 100.333 362.333 97.250 L 362.333 94.167 354.276 94.167 C 344.736 94.167,345.618 94.395,345.526 91.900 L 345.468 90.333 353.901 90.333 L 362.333 90.333 362.333 87.250 L 362.333 84.167 353.917 84.167 L 345.500 84.167 345.500 82.250 L 345.500 80.333 353.917 80.333 L 362.333 80.333 362.333 77.250 L 362.333 74.167 351.417 74.167 L 340.500 74.167 340.500 84.266 M370.833 74.288 C 366.781 75.825,365.833 77.968,365.833 85.592 L 365.833 90.167 374.599 90.167 L 383.366 90.167 383.308 91.737 C 383.257 93.126,383.203 93.357,382.846 93.737 L 382.442 94.167 374.138 94.167 L 365.833 94.167 365.833 97.254 L 365.833 100.342 374.958 100.296 L 384.083 100.250 384.861 99.863 C 385.654 99.469,387.172 98.052,387.585 97.321 C 388.702 95.343,388.828 94.506,388.831 89.042 L 388.833 84.333 379.750 84.333 L 370.667 84.333 370.667 83.072 C 370.667 81.774,370.794 81.356,371.383 80.708 L 371.725 80.333 380.279 80.333 L 388.833 80.333 388.833 77.250 L 388.833 74.167 379.958 74.180 C 375.077 74.187,370.971 74.236,370.833 74.288 M60.545 81.000 C 60.545 81.412,60.578 81.581,60.618 81.375 C 60.657 81.169,60.657 80.831,60.618 80.625 C 60.578 80.419,60.545 80.587,60.545 81.000 M167.637 82.816 C 167.560 86.359,168.377 86.000,160.391 86.000 L 153.833 86.000 153.833 83.634 C 153.833 81.294,153.838 81.263,154.281 80.801 L 154.729 80.333 161.210 80.333 L 167.691 80.333 167.637 82.816 " stroke="none" fill="#ecb454" fill-rule="evenodd"></path><path id="path1" d="M60.875 53.782 C 61.035 53.823,61.298 53.823,61.458 53.782 C 61.619 53.740,61.487 53.705,61.167 53.705 C 60.846 53.705,60.715 53.740,60.875 53.782 M97.375 69.051 C 97.677 69.295,97.786 69.593,97.512 69.424 C 97.426 69.371,97.309 69.404,97.252 69.497 C 97.194 69.590,96.972 69.667,96.759 69.667 C 96.546 69.667,96.157 69.779,95.894 69.916 C 95.274 70.239,95.053 70.231,94.854 69.876 C 94.765 69.717,94.654 69.624,94.608 69.670 C 94.562 69.716,94.988 70.245,95.554 70.845 C 101.313 76.956,105.361 85.650,105.926 93.125 C 106.011 94.244,105.990 94.667,105.851 94.667 C 105.493 94.667,104.185 96.024,103.998 96.589 C 103.480 98.160,104.140 99.874,105.546 100.606 C 106.036 100.860,106.082 101.997,105.660 103.417 C 105.578 103.692,105.463 104.292,105.404 104.750 C 105.345 105.208,105.240 105.696,105.171 105.833 C 105.101 105.971,104.996 106.347,104.938 106.670 C 104.814 107.358,104.066 109.760,103.885 110.050 C 103.816 110.160,103.737 110.397,103.709 110.578 C 103.681 110.758,103.546 111.077,103.408 111.286 C 103.237 111.548,103.220 111.667,103.355 111.667 C 103.471 111.667,103.428 111.804,103.250 112.000 C 103.084 112.183,103.016 112.336,103.099 112.338 C 103.182 112.341,103.119 112.420,102.958 112.513 C 102.629 112.705,102.552 113.078,102.875 112.914 C 102.990 112.856,102.971 112.908,102.833 113.030 C 102.430 113.387,102.463 113.667,102.907 113.667 C 103.131 113.667,103.357 113.597,103.410 113.511 C 103.516 113.340,105.293 112.752,105.623 112.779 C 105.737 112.788,105.792 112.734,105.745 112.659 C 105.699 112.584,105.739 112.475,105.833 112.417 C 105.928 112.358,105.962 112.240,105.910 112.155 C 105.857 112.070,105.898 112.000,106.001 112.000 C 106.113 112.000,106.146 111.865,106.083 111.667 C 106.023 111.475,106.053 111.333,106.155 111.333 C 106.253 111.333,106.333 111.220,106.333 111.081 C 106.333 110.942,106.407 110.699,106.497 110.539 C 106.835 109.944,107.680 107.286,108.020 105.750 C 108.321 104.391,108.793 101.667,108.820 101.141 C 108.827 100.990,109.047 100.791,109.309 100.700 C 111.738 99.853,111.754 95.518,109.331 94.749 C 108.954 94.630,108.889 94.400,108.747 92.667 C 108.645 91.423,107.949 87.629,107.677 86.833 C 107.598 86.604,107.404 85.967,107.246 85.417 C 106.547 82.998,104.312 78.010,103.188 76.363 C 103.020 76.118,102.591 75.467,102.235 74.917 C 101.879 74.367,101.436 73.721,101.252 73.482 C 101.068 73.242,100.804 72.879,100.667 72.675 C 100.295 72.123,99.495 71.185,98.819 70.510 C 98.490 70.182,98.132 69.747,98.024 69.544 C 97.915 69.341,97.659 69.093,97.455 68.995 C 97.119 68.832,97.111 68.838,97.375 69.051 M106.375 70.133 C 104.436 70.737,104.537 74.167,106.494 74.167 C 106.702 74.167,106.996 74.491,107.363 75.125 C 107.667 75.652,108.004 76.233,108.111 76.417 C 110.151 79.923,112.140 85.839,112.901 90.667 C 113.286 93.104,113.511 99.472,113.261 100.833 C 113.219 101.063,113.103 102.000,113.004 102.917 C 112.905 103.833,112.755 104.846,112.673 105.167 C 112.590 105.487,112.479 106.040,112.425 106.394 C 112.372 106.749,112.296 107.092,112.257 107.156 C 112.173 107.291,112.027 107.991,111.909 108.822 C 111.864 109.136,111.716 109.617,111.580 109.891 C 111.256 110.540,111.335 110.589,112.287 110.327 C 113.463 110.004,114.333 109.512,114.333 109.170 C 114.333 109.007,114.436 108.789,114.561 108.686 C 114.685 108.582,114.777 108.329,114.764 108.124 C 114.751 107.918,114.800 107.707,114.874 107.654 C 114.948 107.602,115.088 107.114,115.186 106.571 C 115.284 106.028,115.431 105.246,115.513 104.833 C 116.130 101.736,116.358 94.082,115.911 91.500 C 115.479 89.002,115.314 88.108,115.106 87.138 C 114.245 83.119,112.327 78.203,110.118 74.353 C 109.496 73.268,109.339 72.853,109.418 72.495 C 109.736 71.044,107.936 69.647,106.375 70.133 M90.333 71.947 C 88.233 72.525,87.231 73.167,88.427 73.167 C 88.548 73.167,88.701 73.253,88.766 73.359 C 88.844 73.486,88.805 73.510,88.651 73.430 C 88.522 73.363,88.562 73.427,88.740 73.571 C 88.918 73.715,89.124 73.833,89.199 73.833 C 89.273 73.833,89.333 73.950,89.333 74.093 C 89.333 74.236,89.408 74.307,89.500 74.250 C 89.592 74.193,89.667 74.225,89.667 74.320 C 89.667 74.414,90.083 74.925,90.592 75.454 C 97.402 82.541,100.547 93.887,98.424 103.711 C 97.949 105.905,96.705 109.662,96.316 110.075 C 96.234 110.162,96.167 110.362,96.167 110.520 C 96.167 110.703,95.986 110.846,95.668 110.916 C 93.445 111.405,93.851 114.534,96.167 114.761 C 96.706 114.814,97.000 114.778,97.000 114.661 C 97.000 114.562,97.070 114.523,97.155 114.576 C 97.240 114.629,97.355 114.599,97.410 114.510 C 97.466 114.421,97.633 114.395,97.783 114.452 C 97.950 114.517,98.013 114.489,97.947 114.382 C 97.887 114.286,98.015 114.029,98.231 113.812 C 98.547 113.494,98.613 113.275,98.568 112.692 C 98.532 112.220,98.633 111.698,98.857 111.192 C 99.045 110.766,99.260 110.267,99.333 110.083 C 99.406 109.900,99.578 109.487,99.715 109.167 C 99.969 108.571,100.586 106.546,101.060 104.750 C 102.273 100.150,102.235 93.907,100.964 89.000 C 100.042 85.442,97.239 79.021,96.465 78.694 C 96.393 78.664,96.333 78.570,96.333 78.486 C 96.333 78.114,93.498 74.515,92.000 72.986 C 91.162 72.131,90.704 71.845,90.333 71.947 M61.833 79.931 L 61.833 82.029 61.333 82.218 C 60.918 82.375,60.829 82.506,60.805 82.995 C 60.786 83.393,60.742 83.260,60.667 82.583 C 60.606 82.033,60.543 85.042,60.528 89.269 L 60.500 96.955 59.458 97.332 C 58.229 97.776,53.968 99.429,53.250 99.740 C 52.975 99.859,52.188 100.160,51.500 100.408 C 50.813 100.657,50.100 100.925,49.917 101.005 C 49.612 101.136,47.779 101.860,46.333 102.419 C 40.923 104.510,40.331 104.746,39.792 105.021 C 39.445 105.198,39.414 105.045,39.723 104.680 C 39.845 104.535,40.761 103.104,41.757 101.500 C 42.753 99.896,43.628 98.558,43.701 98.528 C 43.774 98.497,43.833 98.399,43.833 98.310 C 43.833 98.221,44.152 97.684,44.540 97.116 C 44.929 96.548,45.331 95.933,45.433 95.750 C 45.647 95.364,48.660 90.664,49.855 88.852 C 50.301 88.175,50.667 87.592,50.667 87.557 C 50.667 87.522,50.870 87.176,51.119 86.788 C 51.369 86.401,51.575 86.024,51.578 85.952 C 51.581 85.880,51.696 85.747,51.833 85.656 C 52.165 85.436,51.216 85.642,50.750 85.891 C 50.475 86.037,48.868 86.642,48.702 86.661 C 48.676 86.664,48.733 86.522,48.827 86.344 C 48.922 86.167,49.000 85.968,49.000 85.903 C 49.000 85.728,48.183 86.867,48.063 87.208 C 48.007 87.369,47.900 87.500,47.825 87.500 C 47.750 87.500,47.637 87.663,47.574 87.862 C 47.511 88.061,46.945 88.992,46.316 89.931 C 45.687 90.870,45.084 91.832,44.976 92.069 C 44.868 92.306,44.734 92.500,44.678 92.500 C 44.622 92.500,44.427 92.781,44.246 93.125 C 44.065 93.469,43.858 93.825,43.787 93.917 C 43.585 94.178,41.601 97.283,40.753 98.667 C 40.331 99.354,39.427 100.779,38.743 101.833 C 38.059 102.888,37.448 103.862,37.384 104.000 C 37.321 104.138,37.031 104.587,36.741 105.000 C 34.926 107.581,34.945 107.780,37.141 109.171 C 38.026 109.731,39.425 110.633,40.250 111.175 C 41.075 111.717,41.862 112.213,42.000 112.277 C 42.137 112.340,42.287 112.438,42.333 112.494 C 42.379 112.550,43.054 112.995,43.833 113.483 C 45.490 114.521,47.936 116.094,50.533 117.792 C 51.550 118.456,52.406 119.000,52.435 119.000 C 52.485 119.000,54.326 120.182,57.790 122.439 C 58.545 122.931,59.235 123.333,59.323 123.333 C 59.411 123.333,59.543 123.433,59.617 123.555 C 59.810 123.877,60.813 124.333,61.327 124.333 C 61.615 124.333,63.047 123.501,65.427 121.950 C 67.438 120.639,69.402 119.388,69.792 119.169 C 70.181 118.951,70.500 118.723,70.500 118.663 C 70.500 118.603,70.681 118.471,70.903 118.370 C 71.124 118.269,72.080 117.677,73.028 117.055 C 73.975 116.433,74.880 115.847,75.039 115.754 C 75.412 115.534,78.530 113.532,80.250 112.408 C 80.983 111.929,82.258 111.104,83.083 110.576 C 88.124 107.349,87.840 107.859,86.082 105.183 C 85.395 104.138,84.833 103.260,84.833 103.232 C 84.833 103.204,84.440 102.580,83.958 101.845 C 83.477 101.110,82.660 99.850,82.143 99.046 C 81.626 98.242,80.839 97.021,80.394 96.333 C 79.949 95.646,79.529 94.971,79.462 94.833 C 79.394 94.696,78.817 93.796,78.180 92.833 C 77.542 91.871,76.552 90.333,75.979 89.417 C 75.406 88.500,74.328 86.813,73.584 85.667 C 72.840 84.521,71.860 82.998,71.407 82.283 C 70.954 81.568,70.414 80.781,70.207 80.533 C 70.001 80.286,69.789 79.952,69.738 79.792 C 69.618 79.419,68.718 79.399,68.206 79.758 C 68.004 79.900,67.741 79.993,67.622 79.966 C 67.145 79.857,67.305 80.241,68.519 82.120 C 70.697 85.490,73.078 89.206,73.761 90.299 C 75.666 93.348,76.319 94.371,80.533 100.917 C 81.949 103.117,83.162 105.009,83.228 105.121 C 83.294 105.234,82.876 105.115,82.299 104.856 C 81.722 104.597,80.950 104.294,80.583 104.181 C 80.217 104.069,79.767 103.911,79.583 103.831 C 79.274 103.695,77.479 102.986,75.917 102.382 C 75.550 102.241,75.025 102.024,74.750 101.902 C 74.475 101.779,73.575 101.419,72.750 101.103 C 69.645 99.911,67.217 98.972,66.250 98.588 C 65.700 98.370,64.537 97.914,63.667 97.574 C 62.796 97.235,62.046 96.924,62.000 96.882 C 61.954 96.840,61.944 92.537,61.978 87.319 C 62.012 82.102,61.993 77.833,61.936 77.833 C 61.880 77.833,61.833 78.777,61.833 79.931 M22.273 96.084 C 22.010 96.221,21.616 96.333,21.398 96.333 C 21.179 96.333,21.000 96.408,21.000 96.500 C 21.000 96.592,20.905 96.667,20.789 96.667 C 20.290 96.667,20.532 101.154,21.189 104.083 C 21.843 106.997,22.969 110.122,24.330 112.800 L 24.844 113.812 24.503 114.824 C 23.751 117.057,25.549 119.333,28.065 119.333 C 28.541 119.333,28.866 119.420,28.950 119.570 C 29.953 121.353,35.641 126.123,39.167 128.138 C 41.315 129.365,45.601 131.325,46.167 131.338 C 46.304 131.341,46.555 131.449,46.725 131.577 C 46.894 131.705,47.140 131.769,47.272 131.718 C 47.404 131.668,47.660 131.759,47.840 131.922 C 48.019 132.085,48.167 132.139,48.167 132.041 C 48.167 131.818,48.746 131.962,49.471 132.366 C 49.775 132.536,49.977 132.598,49.919 132.504 C 49.861 132.409,49.962 132.333,50.147 132.333 C 50.330 132.333,50.521 132.267,50.572 132.186 C 50.622 132.104,51.170 131.910,51.790 131.754 C 52.410 131.598,53.112 131.366,53.352 131.239 C 53.591 131.113,53.835 131.044,53.893 131.088 C 53.952 131.131,53.960 131.114,53.912 131.051 C 53.798 130.901,53.385 130.806,52.708 130.775 C 52.410 130.761,52.167 130.689,52.167 130.615 C 52.167 130.541,52.100 130.521,52.019 130.572 C 51.938 130.622,51.779 130.552,51.667 130.417 C 51.554 130.281,51.404 130.206,51.332 130.251 C 51.211 130.326,48.859 129.627,46.583 128.839 C 45.022 128.298,40.486 125.951,38.962 124.896 C 35.960 122.817,34.801 121.848,32.641 119.613 L 31.032 117.948 31.347 117.345 C 32.511 115.111,30.290 112.048,27.735 112.363 C 27.308 112.415,26.739 111.564,25.986 109.750 C 25.234 107.936,24.964 107.175,24.538 105.667 C 23.840 103.193,23.518 101.249,23.393 98.750 C 23.333 97.558,23.220 96.558,23.142 96.528 C 23.064 96.497,23.000 96.399,23.000 96.310 C 23.000 96.220,23.075 96.193,23.167 96.250 C 23.258 96.307,23.333 96.236,23.333 96.093 C 23.333 95.766,22.891 95.762,22.273 96.084 M108.381 96.348 C 108.842 96.558,109.333 97.314,109.333 97.815 C 109.333 98.822,107.677 99.602,106.655 99.076 C 104.685 98.063,106.355 95.424,108.381 96.348 M13.418 98.750 C 13.456 99.117,13.490 99.477,13.494 99.552 C 13.497 99.626,13.594 99.630,13.708 99.561 C 13.851 99.475,13.845 99.524,13.689 99.716 C 13.467 99.991,13.470 100.134,13.743 102.250 C 13.934 103.724,14.208 105.168,14.609 106.798 C 14.918 108.060,14.981 108.572,14.848 108.732 C 14.255 109.446,14.799 111.096,15.780 111.564 C 18.281 112.757,20.434 109.624,18.211 108.029 C 17.529 107.540,16.332 102.180,16.333 99.620 C 16.333 98.240,16.246 98.189,14.794 98.716 L 13.700 99.113 13.524 98.598 C 13.351 98.093,13.349 98.096,13.418 98.750 M63.417 99.907 C 65.621 100.772,65.566 100.751,69.000 102.089 C 70.329 102.607,71.867 103.207,72.417 103.424 C 72.967 103.640,74.279 104.151,75.333 104.560 C 76.387 104.969,78.311 105.723,79.608 106.235 C 80.904 106.747,82.001 107.167,82.046 107.167 C 82.090 107.167,82.409 107.285,82.754 107.429 L 83.383 107.692 81.492 108.929 C 80.452 109.610,79.567 110.167,79.525 110.167 C 79.483 110.167,79.216 110.342,78.932 110.557 C 78.649 110.772,78.341 110.979,78.249 111.016 C 78.157 111.053,77.445 111.503,76.666 112.017 C 74.163 113.667,72.754 114.581,72.583 114.667 C 72.383 114.768,70.856 115.759,69.243 116.834 C 68.597 117.264,67.997 117.646,67.910 117.683 C 67.822 117.720,66.887 118.318,65.833 119.011 C 60.708 122.385,61.429 122.155,59.646 120.979 C 58.448 120.188,55.814 118.478,53.667 117.097 C 52.704 116.478,50.624 115.134,49.045 114.111 C 47.465 113.087,45.477 111.807,44.628 111.265 C 43.778 110.724,42.430 109.846,41.633 109.315 C 40.835 108.784,39.945 108.227,39.655 108.077 C 38.997 107.737,39.036 107.706,41.167 106.874 C 42.922 106.188,47.241 104.508,48.333 104.086 C 49.551 103.615,51.597 102.810,51.917 102.676 C 52.100 102.599,53.038 102.238,54.000 101.873 C 54.962 101.508,55.900 101.150,56.083 101.077 C 58.697 100.034,61.268 99.060,61.333 99.088 C 61.379 99.106,62.317 99.475,63.417 99.907 M8.000 101.166 C 7.328 101.534,6.573 101.595,6.429 101.292 C 6.375 101.177,6.366 101.377,6.409 101.737 C 6.453 102.096,6.585 102.451,6.702 102.526 C 6.874 102.634,6.871 102.662,6.690 102.664 C 6.525 102.666,6.497 102.790,6.586 103.125 C 6.653 103.377,6.705 103.696,6.700 103.833 C 6.696 103.971,6.881 105.021,7.112 106.167 C 8.847 114.764,13.165 122.911,19.518 129.569 C 20.531 130.631,20.609 130.765,20.500 131.249 C 19.946 133.707,23.154 136.333,25.304 135.182 C 25.521 135.066,25.949 135.295,27.154 136.175 C 28.016 136.804,28.784 137.280,28.861 137.233 C 28.937 137.186,29.000 137.209,29.000 137.285 C 29.000 137.361,29.337 137.608,29.750 137.833 C 30.162 138.059,30.500 138.305,30.500 138.381 C 30.500 138.457,30.567 138.478,30.649 138.427 C 30.731 138.377,30.844 138.455,30.901 138.602 C 30.959 138.753,31.110 138.827,31.251 138.773 C 31.388 138.720,31.500 138.751,31.500 138.841 C 31.500 138.932,31.769 138.892,32.104 138.752 C 32.436 138.614,32.848 138.500,33.020 138.500 C 33.192 138.500,33.333 138.425,33.333 138.333 C 33.333 138.242,33.516 138.167,33.740 138.167 C 33.964 138.167,34.195 138.088,34.255 137.993 C 34.383 137.785,34.021 137.301,33.826 137.421 C 33.751 137.468,33.643 137.429,33.585 137.336 C 33.527 137.243,33.380 137.167,33.258 137.167 C 33.135 137.167,32.794 136.942,32.500 136.667 C 32.206 136.392,31.860 136.167,31.732 136.167 C 31.605 136.167,31.500 136.097,31.500 136.011 C 31.500 135.926,31.350 135.808,31.168 135.750 C 30.985 135.692,30.741 135.556,30.625 135.447 C 30.509 135.339,29.965 134.950,29.416 134.583 C 28.866 134.217,28.271 133.785,28.094 133.625 C 27.916 133.465,27.707 133.333,27.629 133.333 C 27.552 133.333,27.574 133.173,27.679 132.976 C 28.802 130.879,25.793 127.910,23.303 128.656 L 22.605 128.865 21.500 127.724 C 20.580 126.775,19.473 125.486,18.445 124.166 C 13.629 117.988,9.563 108.096,9.315 101.953 C 9.294 101.429,9.220 101.000,9.152 101.000 C 9.083 101.000,8.927 100.965,8.805 100.923 C 8.683 100.881,8.321 100.990,8.000 101.166 M29.015 114.618 C 30.157 115.293,29.909 116.860,28.590 117.296 C 26.843 117.874,25.497 116.136,26.733 114.900 C 27.389 114.244,28.210 114.143,29.015 114.618 M25.330 130.809 C 26.674 131.801,25.420 133.877,23.710 133.491 C 21.524 132.998,22.198 130.078,24.417 130.426 C 24.692 130.469,25.102 130.641,25.330 130.809 M37.213 131.166 C 34.639 131.758,34.906 135.069,37.529 135.089 C 37.958 135.093,38.273 135.036,38.228 134.964 C 38.183 134.892,38.255 134.833,38.387 134.833 C 38.520 134.833,38.669 134.991,38.719 135.183 C 38.770 135.376,38.885 135.488,38.975 135.432 C 39.065 135.377,39.163 135.405,39.194 135.494 C 39.225 135.584,39.400 135.680,39.583 135.708 C 39.767 135.737,40.010 135.818,40.125 135.889 C 40.242 135.963,40.495 135.906,40.703 135.760 C 40.907 135.617,41.236 135.500,41.433 135.500 C 41.631 135.500,41.882 135.392,41.992 135.260 C 42.102 135.127,42.424 134.996,42.708 134.968 C 42.992 134.940,43.259 134.804,43.302 134.667 C 43.344 134.529,43.326 134.466,43.261 134.526 C 43.196 134.586,42.948 134.533,42.709 134.409 C 42.469 134.285,42.212 134.222,42.137 134.268 C 42.062 134.315,42.000 134.292,42.000 134.217 C 42.000 134.142,41.842 133.982,41.649 133.861 C 41.456 133.740,41.349 133.724,41.411 133.824 C 41.473 133.924,41.245 133.817,40.905 133.586 C 40.565 133.355,40.222 133.167,40.142 133.167 C 40.062 133.167,39.882 132.878,39.741 132.526 C 39.314 131.460,38.302 130.915,37.213 131.166 " stroke="none" fill="#cdaa68" fill-rule="evenodd"></path><path id="path2" d="M56.633 45.227 C 56.006 45.505,55.373 46.129,54.899 46.934 L 54.496 47.619 52.957 47.823 C 52.110 47.935,51.036 48.099,50.571 48.186 C 50.106 48.273,49.506 48.381,49.238 48.425 C 48.970 48.470,48.375 48.590,47.917 48.692 C 47.137 48.865,46.754 48.966,44.833 49.502 C 40.434 50.730,35.161 52.965,31.681 55.075 C 30.842 55.584,30.128 56.000,30.094 56.000 C 29.943 56.000,26.625 58.316,25.500 59.207 C 21.138 62.663,17.799 66.131,14.950 70.167 C 14.336 71.037,13.776 71.825,13.706 71.917 C 13.047 72.782,10.455 77.725,9.772 79.417 C 9.513 80.058,9.236 80.733,9.156 80.917 C 8.925 81.449,8.167 83.696,8.005 84.333 C 6.586 89.884,6.307 91.980,6.321 96.990 C 6.334 101.950,6.356 102.005,7.997 101.168 C 8.355 100.986,8.745 100.874,8.865 100.920 C 9.040 100.987,9.083 100.413,9.083 98.044 C 9.083 81.289,16.747 67.869,31.928 58.041 C 32.105 57.926,32.400 57.756,32.583 57.663 C 32.767 57.570,33.292 57.268,33.750 56.992 C 38.690 54.012,45.859 51.606,53.348 50.415 L 54.947 50.160 55.549 50.729 C 57.102 52.193,59.458 52.166,60.986 50.667 C 61.889 49.780,61.754 49.796,65.833 50.109 C 70.757 50.487,74.686 51.283,79.348 52.849 C 82.957 54.061,83.231 54.201,83.540 54.988 C 84.191 56.646,86.732 56.828,87.673 55.284 C 88.539 53.864,87.459 52.167,85.691 52.167 C 85.303 52.167,84.291 51.870,83.225 51.443 C 81.617 50.799,78.842 49.882,76.167 49.110 C 73.713 48.403,68.339 47.580,64.500 47.324 C 62.499 47.190,61.715 47.078,61.622 46.912 C 60.722 45.314,58.289 44.492,56.633 45.227 M59.618 47.442 C 60.899 49.042,58.467 50.822,56.965 49.383 C 56.426 48.867,56.359 48.204,56.780 47.561 C 57.363 46.671,58.948 46.604,59.618 47.442 M58.917 53.785 C 55.356 53.934,49.503 54.899,46.657 55.805 C 44.840 56.383,43.019 56.995,42.583 57.175 C 39.834 58.305,37.561 59.380,36.250 60.169 C 35.700 60.501,35.137 60.826,35.000 60.892 C 34.373 61.195,32.601 62.378,32.528 62.542 C 32.497 62.610,32.398 62.667,32.308 62.667 C 32.106 62.667,30.298 64.015,28.695 65.361 C 28.371 65.633,28.160 65.669,27.421 65.577 C 24.622 65.227,22.091 68.102,23.375 70.174 C 23.517 70.404,23.528 70.548,23.409 70.630 C 23.085 70.852,21.060 73.570,19.961 75.256 C 15.855 81.558,13.677 88.522,13.434 96.122 C 13.393 97.382,13.430 97.960,13.546 97.888 C 13.647 97.826,13.668 97.863,13.597 97.978 C 13.530 98.086,13.522 98.387,13.579 98.647 L 13.683 99.119 14.786 98.719 C 15.392 98.499,15.970 98.349,16.069 98.387 C 16.193 98.433,16.261 97.734,16.285 96.186 C 16.332 93.177,16.885 89.484,17.673 86.917 C 19.215 81.888,21.050 78.274,24.207 74.045 C 25.574 72.213,25.502 72.265,26.599 72.316 C 29.298 72.441,31.339 70.034,30.423 67.806 C 30.300 67.508,32.280 65.863,34.583 64.350 C 35.921 63.472,35.880 63.496,37.614 62.504 C 39.490 61.430,42.053 60.199,43.000 59.917 C 43.229 59.848,43.492 59.743,43.583 59.682 C 44.253 59.236,50.781 57.386,52.250 57.226 C 52.525 57.196,53.087 57.097,53.500 57.007 C 57.234 56.187,64.344 56.183,68.833 56.997 C 69.337 57.089,69.975 57.195,70.250 57.232 C 72.650 57.561,77.477 59.027,80.583 60.371 C 82.370 61.144,83.264 61.598,85.750 62.996 C 88.193 64.370,92.619 67.713,93.973 69.208 C 94.202 69.460,94.481 69.667,94.593 69.667 C 94.706 69.667,94.841 69.779,94.894 69.917 C 95.015 70.232,95.288 70.232,95.894 69.916 C 96.157 69.779,96.546 69.667,96.759 69.667 C 96.972 69.667,97.194 69.590,97.252 69.497 C 97.309 69.404,97.426 69.371,97.512 69.424 C 97.785 69.593,97.677 69.295,97.375 69.048 C 97.206 68.909,97.189 68.862,97.333 68.936 C 97.648 69.097,95.083 66.583,93.750 65.424 C 89.196 61.467,83.672 58.431,77.083 56.267 C 74.972 55.573,72.597 54.947,71.250 54.730 C 70.236 54.567,69.998 54.521,69.695 54.433 C 68.423 54.062,61.803 53.664,58.917 53.785 M57.833 60.266 C 54.650 60.546,51.175 61.200,48.583 62.005 C 47.667 62.290,46.767 62.563,46.583 62.611 C 46.400 62.660,46.014 62.805,45.725 62.933 C 45.436 63.062,45.150 63.167,45.089 63.167 C 44.819 63.167,41.605 64.697,40.000 65.591 C 37.705 66.868,35.064 68.671,33.583 69.970 C 28.510 74.422,25.596 78.359,22.951 84.333 C 21.612 87.358,20.042 95.439,20.711 95.864 C 20.873 95.967,20.873 95.995,20.708 95.997 C 20.594 95.999,20.500 96.150,20.500 96.333 C 20.500 96.519,20.611 96.667,20.750 96.667 C 20.887 96.667,21.000 96.592,21.000 96.500 C 21.000 96.408,21.179 96.333,21.398 96.333 C 21.616 96.333,22.010 96.221,22.273 96.084 C 22.535 95.947,22.873 95.835,23.024 95.834 C 23.346 95.833,23.523 95.473,23.343 95.182 C 23.273 95.069,23.272 94.626,23.341 94.197 C 23.889 90.772,24.148 89.594,24.837 87.417 C 27.527 78.902,34.629 71.022,43.333 66.896 C 45.741 65.754,45.947 65.667,46.224 65.667 C 46.365 65.667,46.520 65.602,46.569 65.522 C 46.716 65.285,50.981 63.997,52.667 63.681 C 53.171 63.587,54.258 63.378,55.083 63.218 C 59.921 62.279,69.132 63.085,74.250 64.896 C 76.968 65.857,78.487 66.497,80.149 67.383 L 81.548 68.128 81.545 68.939 C 81.538 71.226,83.908 72.819,86.273 72.117 C 87.109 71.869,87.127 71.871,87.572 72.284 L 88.024 72.703 89.019 72.340 C 89.566 72.141,90.243 71.971,90.525 71.963 L 91.037 71.948 90.644 71.730 C 90.427 71.610,90.312 71.509,90.388 71.506 C 90.464 71.503,90.276 71.294,89.971 71.043 C 88.926 70.181,88.917 70.164,88.908 69.011 C 88.888 66.381,85.392 64.481,83.404 66.020 C 83.306 66.096,83.156 66.092,83.071 66.012 C 81.961 64.953,75.721 62.430,71.725 61.426 C 68.028 60.496,61.456 59.947,57.833 60.266 M28.135 67.900 C 28.683 68.437,28.688 69.540,28.145 69.998 C 26.650 71.258,24.457 69.804,25.346 68.142 C 25.793 67.308,27.389 67.169,28.135 67.900 M86.612 67.932 C 87.471 68.858,86.852 70.412,85.583 70.512 C 83.491 70.677,82.652 68.538,84.432 67.580 C 85.093 67.225,86.109 67.389,86.612 67.932 M60.698 67.614 C 60.577 67.662,59.990 68.462,59.393 69.392 C 58.796 70.322,58.088 71.404,57.820 71.797 C 57.552 72.189,57.333 72.549,57.333 72.597 C 57.333 72.646,56.958 73.254,56.500 73.949 C 56.042 74.644,55.667 75.234,55.667 75.259 C 55.667 75.284,55.254 75.918,54.750 76.667 C 54.246 77.416,53.833 78.054,53.833 78.086 C 53.833 78.117,53.533 78.595,53.167 79.147 C 52.800 79.699,52.500 80.197,52.500 80.253 C 52.500 80.309,52.331 80.594,52.125 80.886 C 51.729 81.445,51.507 81.785,51.037 82.551 C 50.879 82.808,50.400 83.565,49.971 84.233 C 49.332 85.232,48.582 86.683,48.717 86.661 C 48.936 86.625,50.512 86.016,50.809 85.853 C 51.024 85.734,51.343 85.674,51.517 85.719 C 51.691 85.765,51.792 85.734,51.740 85.651 C 51.689 85.568,51.726 85.500,51.823 85.500 C 51.921 85.500,52.000 85.346,52.000 85.157 C 52.000 84.968,52.075 84.860,52.167 84.917 C 52.258 84.973,52.333 84.956,52.333 84.877 C 52.333 84.799,52.446 84.588,52.584 84.409 C 53.039 83.818,53.827 82.586,53.830 82.460 C 53.832 82.393,53.944 82.205,54.079 82.044 C 54.292 81.788,54.971 80.745,58.250 75.633 C 58.617 75.062,58.947 74.520,58.984 74.430 C 59.020 74.339,59.121 74.187,59.206 74.091 C 59.292 73.995,59.616 73.504,59.927 73.000 L 60.492 72.083 60.517 76.000 C 60.540 79.586,60.738 84.388,60.805 82.995 C 60.828 82.514,60.920 82.374,61.306 82.228 L 61.779 82.049 61.889 78.900 C 61.950 77.167,62.004 74.887,62.009 73.833 C 62.018 72.283,62.058 71.977,62.218 72.231 C 62.327 72.404,62.660 72.909,62.958 73.352 C 63.256 73.796,63.500 74.229,63.500 74.315 C 63.500 74.402,63.558 74.497,63.628 74.528 C 63.759 74.584,64.691 75.973,65.259 76.958 C 65.431 77.256,65.631 77.500,65.703 77.500 C 65.775 77.500,65.833 77.650,65.833 77.833 C 65.833 78.017,65.897 78.167,65.974 78.167 C 66.051 78.167,66.256 78.429,66.428 78.750 C 66.601 79.071,66.802 79.333,66.875 79.333 C 66.948 79.333,67.079 79.519,67.165 79.747 C 67.331 80.182,67.574 80.176,68.245 79.722 C 68.426 79.600,68.780 79.500,69.032 79.500 C 69.369 79.500,69.464 79.435,69.394 79.251 C 69.341 79.114,69.236 79.040,69.161 79.087 C 69.085 79.134,68.969 79.084,68.902 78.977 C 68.827 78.855,68.854 78.826,68.974 78.901 C 69.307 79.106,69.199 78.906,67.875 76.846 C 67.165 75.741,66.246 74.300,65.833 73.642 C 61.817 67.242,61.769 67.185,60.698 67.614 " stroke="none" fill="#e9d088" fill-rule="evenodd"></path><path id="path3" d="M148.701 121.625 L 148.750 130.250 149.158 131.042 C 149.383 131.477,149.626 131.833,149.700 131.833 C 149.773 131.833,149.833 131.919,149.833 132.024 C 149.833 132.349,151.272 133.630,152.114 134.054 C 153.563 134.784,154.233 134.833,162.675 134.833 L 170.667 134.833 170.667 132.250 L 170.667 129.667 162.689 129.667 C 153.196 129.667,153.833 129.805,153.833 127.738 L 153.833 126.500 162.250 126.500 L 170.667 126.500 170.667 123.833 L 170.667 121.167 162.250 121.167 L 153.833 121.167 153.833 119.667 L 153.833 118.167 162.250 118.167 L 170.667 118.167 170.667 115.583 L 170.667 113.000 159.660 113.000 L 148.653 113.000 148.701 121.625 M174.355 113.317 C 174.633 113.703,176.013 115.479,176.382 115.927 C 176.529 116.104,177.746 117.638,179.087 119.333 C 181.443 122.313,181.939 122.931,182.457 123.531 C 182.694 123.806,182.285 124.596,181.567 125.250 C 181.466 125.342,181.135 125.773,180.830 126.208 C 180.526 126.644,180.215 127.000,180.138 127.000 C 180.062 127.000,180.000 127.112,180.000 127.250 C 180.000 127.388,179.931 127.500,179.847 127.500 C 179.763 127.500,179.543 127.744,179.358 128.042 C 179.173 128.340,178.849 128.768,178.638 128.994 C 178.426 129.220,177.920 129.858,177.513 130.411 C 177.106 130.964,176.673 131.517,176.551 131.639 C 176.428 131.762,176.124 132.137,175.873 132.473 C 175.623 132.809,175.379 133.121,175.330 133.167 C 175.107 133.376,174.167 134.642,174.167 134.732 C 174.167 134.788,175.575 134.833,177.296 134.833 L 180.426 134.833 180.890 134.304 C 181.146 134.013,181.588 133.450,181.872 133.054 C 182.157 132.658,182.452 132.333,182.528 132.333 C 182.604 132.333,182.667 132.221,182.667 132.083 C 182.667 131.946,182.729 131.833,182.805 131.833 C 182.881 131.833,183.193 131.477,183.497 131.042 C 183.802 130.606,184.133 130.175,184.234 130.083 C 184.334 129.992,184.754 129.467,185.167 128.917 C 185.579 128.368,186.056 127.768,186.226 127.584 C 186.396 127.400,186.648 127.081,186.787 126.875 C 187.156 126.325,187.345 126.407,188.083 127.439 C 188.450 127.952,188.924 128.560,189.137 128.790 C 189.349 129.021,189.715 129.499,189.950 129.854 C 190.185 130.209,190.443 130.500,190.522 130.500 C 190.602 130.500,190.667 130.612,190.667 130.750 C 190.667 130.887,190.729 131.000,190.805 131.000 C 190.881 131.000,191.197 131.356,191.507 131.792 C 191.817 132.227,192.152 132.658,192.253 132.750 C 192.353 132.842,192.651 133.217,192.913 133.583 C 193.854 134.896,193.644 134.833,197.076 134.833 C 198.776 134.833,200.167 134.769,200.167 134.690 C 200.167 134.568,196.957 130.404,196.680 130.167 C 196.626 130.121,196.249 129.633,195.842 129.083 C 195.435 128.533,195.019 128.008,194.919 127.917 C 194.819 127.825,194.483 127.394,194.173 126.958 C 193.864 126.523,193.548 126.167,193.472 126.167 C 193.396 126.167,193.333 126.054,193.333 125.917 C 193.333 125.779,193.271 125.667,193.194 125.667 C 192.921 125.667,191.801 123.854,191.937 123.633 C 192.042 123.463,195.952 118.485,196.885 117.333 C 196.997 117.196,197.349 116.746,197.669 116.333 C 197.989 115.921,198.300 115.545,198.361 115.499 C 198.423 115.452,198.855 114.889,199.323 114.249 L 200.172 113.083 197.133 113.038 C 193.576 112.984,193.874 112.913,192.995 114.032 C 192.613 114.519,192.090 115.179,191.833 115.500 C 191.577 115.821,190.865 116.721,190.251 117.500 C 189.637 118.279,188.949 119.142,188.720 119.417 C 188.492 119.692,188.106 120.196,187.861 120.538 C 187.617 120.880,187.340 121.161,187.245 121.163 C 187.054 121.167,186.167 120.208,186.167 119.997 C 186.167 119.922,186.110 119.836,186.040 119.806 C 185.971 119.775,185.654 119.412,185.336 119.000 C 185.019 118.587,184.716 118.212,184.663 118.167 C 184.611 118.121,184.200 117.596,183.750 117.000 C 183.300 116.404,182.889 115.879,182.837 115.833 C 182.784 115.787,182.482 115.412,182.165 115.000 C 181.848 114.587,181.488 114.146,181.366 114.018 C 181.244 113.891,181.028 113.610,180.886 113.393 C 180.630 113.002,180.610 113.000,177.377 113.000 C 174.213 113.000,174.132 113.008,174.355 113.317 M208.417 113.111 C 206.329 113.561,204.484 115.423,203.821 117.750 C 203.630 118.420,203.583 120.170,203.583 126.667 L 203.583 134.750 206.208 134.796 L 208.833 134.842 208.833 131.847 L 208.833 128.852 216.208 128.801 L 223.583 128.749 224.447 128.273 C 225.299 127.804,226.769 126.414,227.131 125.735 C 227.861 124.365,227.891 124.100,227.957 118.458 L 228.021 113.000 218.385 113.019 C 213.086 113.030,208.600 113.071,208.417 113.111 M231.500 121.518 L 231.500 130.036 231.990 131.060 C 233.647 134.524,234.703 134.820,245.458 134.827 L 253.500 134.833 253.500 132.250 L 253.500 129.667 245.439 129.667 L 237.379 129.667 236.939 129.227 L 236.500 128.788 236.500 120.894 L 236.500 113.000 234.000 113.000 L 231.500 113.000 231.500 121.518 M261.667 113.164 C 259.817 113.563,257.757 115.647,257.216 117.667 C 256.928 118.742,256.937 128.974,257.227 130.000 C 257.922 132.463,259.669 134.111,262.167 134.660 C 263.176 134.882,274.567 134.882,275.700 134.660 C 277.666 134.275,279.356 133.002,280.254 131.229 L 280.750 130.250 280.796 121.625 L 280.842 113.000 271.546 113.019 C 266.433 113.030,261.987 113.095,261.667 113.164 M289.073 113.156 C 287.553 113.520,285.751 115.056,284.954 116.667 C 284.587 117.409,284.583 117.505,284.537 126.125 L 284.491 134.833 287.079 134.833 L 289.667 134.833 289.667 131.414 L 289.667 127.995 294.700 128.039 L 299.733 128.083 300.426 129.417 C 300.808 130.150,301.431 131.313,301.811 132.000 C 302.192 132.688,302.671 133.605,302.877 134.038 L 303.250 134.827 305.875 134.830 C 307.319 134.832,308.500 134.806,308.500 134.772 C 308.500 134.738,307.691 133.100,306.702 131.130 L 304.903 127.550 305.381 127.339 C 306.141 127.002,307.584 125.499,308.105 124.500 L 308.583 123.583 308.636 118.292 L 308.688 113.000 299.136 113.017 C 293.882 113.026,289.354 113.089,289.073 113.156 M312.167 121.010 C 312.167 126.316,312.229 129.283,312.352 129.801 C 312.586 130.786,313.022 131.833,313.199 131.833 C 313.273 131.833,313.333 131.906,313.333 131.994 C 313.333 132.250,314.683 133.487,315.471 133.953 C 316.831 134.758,317.613 134.821,326.292 134.827 L 334.333 134.833 334.333 132.250 L 334.333 129.667 326.242 129.667 L 318.152 129.667 317.742 129.258 C 317.386 128.901,317.333 128.699,317.333 127.674 L 317.333 126.500 325.833 126.500 L 334.333 126.500 334.333 123.833 L 334.333 121.167 325.833 121.167 L 317.333 121.167 317.333 119.667 L 317.333 118.167 325.833 118.167 L 334.333 118.167 334.333 115.583 L 334.333 113.000 323.250 113.000 L 312.167 113.000 312.167 121.010 M342.399 113.158 C 340.844 113.529,339.187 114.970,338.362 116.667 L 337.917 117.583 337.871 126.208 L 337.825 134.833 340.412 134.833 L 343.000 134.833 343.000 131.417 L 343.000 128.000 347.980 128.000 C 351.762 128.000,353.000 128.050,353.128 128.208 C 353.221 128.323,353.841 129.464,354.506 130.744 C 355.171 132.023,355.924 133.448,356.179 133.910 L 356.642 134.750 359.238 134.796 C 360.665 134.821,361.833 134.784,361.832 134.713 C 361.832 134.641,361.045 133.016,360.084 131.101 C 358.284 127.514,358.203 127.204,359.058 127.172 C 359.320 127.162,361.099 125.256,361.397 124.667 C 361.994 123.485,362.167 121.836,362.167 117.319 L 362.167 113.000 352.542 113.017 C 347.248 113.026,342.684 113.090,342.399 113.158 M222.667 120.669 L 222.667 123.172 222.125 123.502 C 221.610 123.816,221.270 123.832,215.208 123.833 L 208.833 123.833 208.833 121.386 C 208.833 119.102,208.858 118.912,209.196 118.552 L 209.558 118.167 216.112 118.167 L 222.667 118.167 222.667 120.669 M275.833 123.404 L 275.833 128.641 275.402 129.154 L 274.970 129.667 269.008 129.667 C 263.228 129.667,263.031 129.656,262.606 129.321 L 262.167 128.976 262.167 123.911 C 262.167 118.915,262.172 118.842,262.531 118.506 C 262.886 118.177,263.085 118.167,269.365 118.167 L 275.833 118.167 275.833 123.404 M303.500 120.155 C 303.500 123.072,304.155 122.833,296.144 122.833 L 289.667 122.833 289.667 120.840 C 289.667 117.907,288.959 118.167,296.948 118.167 L 303.500 118.167 303.500 120.155 M356.833 120.155 C 356.833 123.072,357.488 122.833,349.478 122.833 L 343.000 122.833 343.000 120.939 C 343.000 119.275,343.042 118.992,343.345 118.606 L 343.691 118.167 350.262 118.167 L 356.833 118.167 356.833 120.155 " stroke="none" fill="#cc041c" fill-rule="evenodd"></path><path id="path4" d="M61.896 94.750 C 61.896 95.758,61.924 96.149,61.957 95.619 C 61.990 95.088,61.990 94.263,61.956 93.786 C 61.922 93.308,61.895 93.742,61.896 94.750 M115.262 105.929 C 115.201 106.173,115.183 106.405,115.222 106.444 C 115.261 106.483,115.343 106.316,115.405 106.071 C 115.466 105.827,115.484 105.595,115.445 105.556 C 115.406 105.517,115.323 105.684,115.262 105.929 M114.533 108.700 C 114.423 108.810,114.333 109.030,114.333 109.188 C 114.333 109.645,111.965 110.650,111.400 110.433 C 111.183 110.350,111.097 110.616,111.122 111.292 C 111.126 111.406,111.070 111.500,110.997 111.500 C 110.924 111.500,110.639 112.119,110.364 112.875 C 109.201 116.066,106.699 120.487,104.119 123.909 C 102.255 126.381,99.577 129.232,99.240 129.102 C 96.879 128.196,94.206 130.118,94.361 132.610 L 94.417 133.499 93.053 134.458 C 88.807 137.443,82.646 140.513,78.583 141.668 C 65.923 145.268,56.033 145.269,43.917 141.672 C 43.642 141.590,42.779 141.289,42.000 141.002 C 41.221 140.715,40.391 140.419,40.155 140.344 C 39.920 140.269,39.582 140.132,39.405 140.039 C 37.573 139.084,34.770 137.853,34.628 137.941 C 34.529 138.002,34.493 137.980,34.547 137.892 C 34.601 137.805,34.481 137.631,34.281 137.507 C 33.952 137.302,33.938 137.306,34.139 137.549 C 34.428 137.898,34.254 138.167,33.740 138.167 C 33.516 138.167,33.333 138.242,33.333 138.333 C 33.333 138.425,33.192 138.500,33.020 138.500 C 32.848 138.500,32.441 138.611,32.117 138.747 C 31.678 138.930,31.509 138.943,31.460 138.797 C 31.417 138.666,31.358 138.658,31.287 138.773 C 31.227 138.870,31.564 139.152,32.048 139.412 C 33.426 140.149,36.238 141.593,36.374 141.634 C 36.443 141.654,36.893 141.842,37.374 142.053 C 39.634 143.041,41.293 143.662,43.250 144.252 C 44.075 144.501,44.921 144.770,45.130 144.851 C 46.031 145.198,50.767 146.140,54.000 146.615 C 57.874 147.184,66.914 146.989,70.750 146.253 C 71.392 146.130,72.404 145.942,73.000 145.836 C 76.254 145.253,82.659 143.276,84.775 142.200 C 84.945 142.114,86.171 141.505,87.500 140.847 C 91.293 138.969,92.563 138.215,95.250 136.247 C 96.363 135.432,96.440 135.402,96.917 135.605 C 99.207 136.582,102.021 134.464,101.777 131.948 L 101.678 130.917 103.022 129.500 C 104.339 128.112,106.374 125.658,107.167 124.500 C 107.387 124.179,107.611 123.879,107.665 123.833 C 108.262 123.326,112.219 116.316,112.410 115.428 C 112.431 115.330,112.616 114.875,112.821 114.417 C 113.593 112.691,114.027 111.346,113.886 111.117 C 113.827 111.021,113.865 111.000,113.974 111.067 C 114.097 111.143,114.167 111.057,114.167 110.832 C 114.167 110.637,114.239 110.343,114.328 110.177 C 114.475 109.902,114.841 108.500,114.766 108.500 C 114.748 108.500,114.643 108.590,114.533 108.700 M111.532 109.454 C 111.410 109.851,111.400 110.122,111.503 110.205 C 111.591 110.277,111.633 110.291,111.595 110.236 C 111.557 110.181,111.629 109.843,111.755 109.485 C 111.882 109.127,111.926 108.833,111.854 108.833 C 111.782 108.833,111.637 109.113,111.532 109.454 M106.850 109.600 C 106.754 109.947,106.704 110.259,106.738 110.293 C 106.772 110.328,106.890 110.083,107.000 109.750 C 107.110 109.417,107.160 109.105,107.112 109.057 C 107.064 109.008,106.946 109.253,106.850 109.600 M106.444 110.611 C 106.383 110.672,106.333 110.860,106.333 111.028 C 106.333 111.196,106.258 111.333,106.167 111.333 C 106.075 111.333,106.000 111.408,106.000 111.500 C 106.000 111.849,106.302 111.646,106.502 111.161 C 106.704 110.674,106.674 110.382,106.444 110.611 M105.583 112.596 C 105.400 112.735,104.858 112.962,104.378 113.102 C 103.899 113.241,103.463 113.425,103.410 113.511 C 103.357 113.597,103.126 113.667,102.897 113.667 C 102.662 113.667,102.525 113.594,102.583 113.500 C 102.640 113.408,102.625 113.333,102.549 113.333 C 102.474 113.333,102.228 113.727,102.003 114.208 C 101.779 114.690,101.551 115.121,101.497 115.167 C 101.444 115.212,101.149 115.699,100.843 116.247 C 98.034 121.281,90.952 128.448,86.440 130.822 C 86.061 131.022,85.375 131.404,84.917 131.672 C 83.649 132.412,80.530 133.928,79.500 134.305 C 78.996 134.489,78.171 134.794,77.667 134.983 C 70.013 137.839,60.396 138.520,51.333 136.847 C 50.921 136.771,50.171 136.594,49.667 136.453 C 49.163 136.313,48.000 135.997,47.083 135.751 C 46.167 135.505,45.065 135.154,44.635 134.969 C 44.205 134.785,43.763 134.691,43.651 134.760 C 43.522 134.839,43.492 134.815,43.567 134.692 C 43.633 134.587,43.615 134.500,43.528 134.500 C 43.440 134.500,43.326 134.612,43.273 134.750 C 43.218 134.893,42.970 135.000,42.692 135.000 C 42.426 135.000,42.114 135.112,42.000 135.250 C 41.886 135.387,41.631 135.500,41.433 135.500 C 41.236 135.500,40.904 135.619,40.697 135.764 C 40.385 135.983,40.269 135.992,40.035 135.815 C 39.771 135.618,39.770 135.624,40.017 135.895 C 40.164 136.057,40.389 136.206,40.517 136.227 C 40.645 136.249,40.920 136.360,41.128 136.474 C 41.337 136.588,41.580 136.637,41.670 136.581 C 41.760 136.526,41.833 136.551,41.833 136.637 C 41.833 136.723,42.077 136.884,42.375 136.996 C 43.808 137.532,44.175 137.658,45.417 138.043 C 47.319 138.633,48.450 138.939,49.500 139.145 C 50.004 139.245,50.979 139.438,51.667 139.576 C 56.269 140.497,63.760 140.747,67.750 140.114 C 72.764 139.318,77.693 138.041,80.417 136.831 C 80.783 136.668,81.545 136.341,82.110 136.105 C 91.132 132.329,100.053 124.196,104.303 115.872 C 104.595 115.301,105.063 114.383,105.343 113.833 C 105.623 113.283,105.802 112.833,105.739 112.833 C 105.677 112.833,105.719 112.721,105.833 112.583 C 106.095 112.269,106.011 112.273,105.583 112.596 M94.180 113.343 C 94.173 113.486,94.283 113.749,94.426 113.926 C 94.681 114.245,94.683 114.245,94.532 113.917 C 94.447 113.733,94.337 113.471,94.286 113.333 C 94.206 113.117,94.191 113.119,94.180 113.343 M98.417 113.628 C 98.122 113.844,97.788 114.334,97.938 114.328 C 98.018 114.325,98.218 114.138,98.383 113.911 C 98.693 113.485,98.701 113.419,98.417 113.628 M97.422 114.492 C 97.360 114.591,97.240 114.629,97.155 114.576 C 97.070 114.523,97.000 114.562,97.000 114.661 C 97.000 114.779,96.695 114.813,96.125 114.758 C 95.530 114.701,95.330 114.726,95.500 114.835 C 96.078 115.205,98.046 114.823,97.641 114.419 C 97.582 114.360,97.483 114.392,97.422 114.492 M32.917 120.000 C 33.275 120.367,33.605 120.667,33.651 120.667 C 33.697 120.667,33.441 120.367,33.083 120.000 C 32.725 119.633,32.395 119.333,32.349 119.333 C 32.303 119.333,32.559 119.633,32.917 120.000 M79.167 126.450 C 78.811 126.579,77.833 127.530,77.833 127.748 C 77.833 127.988,76.286 128.664,74.417 129.239 C 73.592 129.493,72.654 129.798,72.333 129.917 C 72.012 130.036,71.300 130.225,70.750 130.337 C 70.200 130.448,69.300 130.636,68.750 130.754 C 66.043 131.334,60.116 131.600,57.417 131.263 C 56.867 131.194,56.154 131.112,55.833 131.081 C 55.210 131.021,54.393 130.897,53.583 130.738 C 53.218 130.667,53.148 130.686,53.325 130.809 C 53.458 130.902,53.622 130.944,53.689 130.903 C 53.756 130.862,53.865 130.923,53.932 131.039 C 53.999 131.155,53.993 131.196,53.920 131.129 C 53.847 131.063,53.591 131.114,53.352 131.242 C 53.112 131.371,52.542 131.562,52.083 131.667 C 51.625 131.772,51.025 131.957,50.750 132.078 C 49.887 132.457,49.719 132.479,49.308 132.266 C 48.675 131.938,48.139 131.832,48.211 132.050 C 48.269 132.224,48.577 132.323,49.833 132.575 C 50.063 132.621,50.466 132.706,50.729 132.764 C 51.090 132.843,51.176 132.817,51.078 132.659 C 50.993 132.521,51.016 132.490,51.144 132.569 C 51.251 132.635,51.299 132.755,51.249 132.834 C 51.200 132.914,51.518 133.027,51.955 133.086 C 52.392 133.145,52.975 133.261,53.250 133.344 C 56.501 134.322,65.266 134.221,70.167 133.149 C 71.037 132.958,72.050 132.740,72.417 132.663 C 73.473 132.443,77.698 131.006,78.407 130.627 C 78.587 130.531,79.180 130.466,79.725 130.482 C 81.781 130.544,82.953 128.935,81.996 127.365 C 81.497 126.546,80.125 126.103,79.167 126.450 M52.167 130.639 C 52.167 130.801,52.773 130.782,52.941 130.615 C 53.004 130.552,52.856 130.500,52.611 130.500 C 52.367 130.500,52.167 130.562,52.167 130.639 M99.371 131.338 C 100.103 132.242,99.875 133.190,98.798 133.718 C 97.299 134.453,95.681 132.839,96.601 131.525 C 97.155 130.735,98.793 130.624,99.371 131.338 M41.144 133.706 C 41.269 133.866,41.432 133.959,41.505 133.913 C 41.579 133.868,41.758 133.949,41.903 134.094 C 42.048 134.239,42.167 134.279,42.167 134.184 C 42.167 134.089,42.017 133.931,41.833 133.833 C 41.650 133.735,41.500 133.704,41.500 133.765 C 41.500 133.825,41.369 133.771,41.208 133.645 C 40.944 133.438,40.938 133.444,41.144 133.706 M42.667 134.391 C 42.896 134.512,43.119 134.582,43.162 134.546 C 43.279 134.450,42.787 134.172,42.500 134.172 C 42.362 134.172,42.437 134.270,42.667 134.391 M38.134 134.922 C 38.085 134.971,37.875 135.043,37.667 135.083 C 37.124 135.188,37.040 135.333,37.522 135.333 C 37.748 135.333,38.023 135.243,38.133 135.133 C 38.289 134.978,38.333 134.978,38.333 135.133 C 38.333 135.243,38.408 135.333,38.500 135.333 C 38.592 135.333,38.667 135.221,38.667 135.083 C 38.667 134.843,38.318 134.738,38.134 134.922 M32.700 136.825 C 32.818 137.013,33.008 137.167,33.123 137.167 C 33.433 137.167,33.382 137.071,32.910 136.761 C 32.497 136.490,32.492 136.492,32.700 136.825 M28.833 137.307 C 28.833 137.397,29.208 137.702,29.667 137.984 C 30.125 138.266,30.500 138.440,30.500 138.370 C 30.500 138.300,30.224 138.094,29.887 137.913 C 29.550 137.732,29.175 137.484,29.054 137.363 C 28.933 137.242,28.833 137.217,28.833 137.307 " stroke="none" fill="#bb945c" fill-rule="evenodd"></path></g></svg>